<?xml version="1.0" standalone="no"?>
<!DOCTYPE svg PUBLIC "-//W3C//DTD SVG 20010904//EN"
 "http://www.w3.org/TR/2001/REC-SVG-20010904/DTD/svg10.dtd">
<svg version="1.0" xmlns="http://www.w3.org/2000/svg"
 width="3268.000000pt" height="3268.000000pt" viewBox="0 0 3268.000000 3268.000000"
 preserveAspectRatio="xMidYMid meet">
<metadata>
Created by potrace 1.14, written by Peter Selinger 2001-2017
</metadata>
<g transform="translate(0.000000,3268.000000) scale(0.100000,-0.100000)"
fill="#000000" stroke="none">
<path d="M15969 27705 c-2 -1 -51 -6 -109 -10 -151 -10 -404 -37 -470 -50 -14
-3 -43 -7 -65 -11 -253 -35 -622 -119 -920 -209 -201 -61 -593 -200 -700 -249
-16 -8 -75 -33 -130 -56 -123 -51 -532 -251 -658 -321 -517 -288 -956 -584
-1417 -953 -119 -95 -387 -322 -421 -355 -9 -9 -49 -45 -89 -81 -263 -233
-698 -672 -962 -971 -150 -171 -426 -499 -511 -609 -41 -52 -323 -406 -327
-410 -3 -3 -48 -57 -100 -120 -52 -63 -107 -128 -121 -145 -15 -16 -48 -55
-74 -85 -112 -130 -165 -191 -254 -290 -52 -58 -102 -112 -110 -121 -9 -9 -65
-70 -126 -135 -140 -151 -539 -550 -674 -674 -57 -52 -111 -102 -120 -110
-105 -99 -382 -330 -536 -446 -106 -80 -330 -234 -377 -260 -13 -7 2 -19 80
-59 108 -56 322 -194 446 -287 72 -55 243 -193 256 -208 3 -3 23 -20 45 -39
181 -153 563 -530 776 -766 29 -34 91 -101 135 -150 45 -50 114 -128 154 -175
40 -47 94 -110 120 -140 215 -249 246 -287 834 -1025 82 -102 172 -214 201
-248 29 -34 86 -100 125 -147 326 -383 807 -875 1185 -1212 265 -236 711 -594
905 -727 19 -13 69 -47 110 -76 377 -262 798 -511 1175 -694 470 -229 875
-382 1360 -516 72 -19 140 -37 150 -39 11 -3 92 -20 180 -40 153 -33 410 -80
505 -90 65 -8 143 -18 160 -21 8 -2 58 -6 110 -10 52 -4 103 -9 112 -10 111
-21 769 -21 983 0 22 2 69 7 105 10 36 3 99 10 140 15 41 5 93 11 115 14 163
18 498 84 741 145 596 149 1230 401 1798 715 66 36 120 66 122 66 1 0 89 52
196 116 434 262 874 578 1278 918 202 170 186 156 345 301 345 315 790 771
1045 1071 14 16 75 88 136 159 100 118 262 318 404 500 30 38 63 79 72 90 9
11 73 90 143 175 133 163 329 395 355 420 8 8 30 33 49 55 262 310 858 918
1177 1202 108 96 111 99 259 223 176 148 358 285 520 390 l125 83 -118 64
c-134 74 -189 107 -287 177 -80 57 -178 129 -185 136 -3 3 -23 18 -45 35 -22
16 -42 32 -45 35 -3 3 -32 28 -65 55 -283 235 -683 633 -1035 1030 -63 72
-117 132 -120 135 -3 3 -27 32 -55 65 -27 33 -56 67 -64 75 -50 52 -510 614
-666 814 -63 81 -319 401 -324 406 -4 3 -49 57 -102 120 -53 64 -102 122 -110
130 -8 8 -43 49 -79 90 -36 41 -67 77 -70 80 -3 3 -52 57 -110 120 -112 124
-632 647 -741 745 -205 187 -364 324 -539 466 -874 709 -1763 1217 -2695 1539
-133 46 -389 125 -438 135 -10 2 -27 7 -37 10 -39 12 -420 100 -474 109 -17 3
-42 8 -56 10 -54 10 -207 35 -250 41 -25 3 -56 8 -70 10 -14 2 -51 7 -83 10
-32 4 -67 8 -77 10 -11 2 -61 7 -112 10 -51 4 -104 9 -118 12 -28 6 -786 14
-791 8z m522 -2439 c208 -19 376 -47 575 -96 117 -28 350 -100 409 -125 17 -7
84 -34 150 -60 240 -96 531 -250 828 -439 88 -56 170 -108 183 -116 66 -42
242 -165 374 -264 63 -47 330 -256 346 -271 6 -5 35 -30 64 -55 221 -185 702
-648 945 -910 99 -107 165 -178 285 -310 58 -63 124 -135 147 -160 23 -25 50
-55 60 -67 11 -12 66 -72 124 -134 57 -62 136 -146 174 -188 112 -122 644
-651 714 -711 35 -30 69 -60 75 -65 6 -6 56 -45 111 -88 55 -42 105 -81 111
-86 23 -18 193 -129 232 -151 l41 -23 -81 -61 c-83 -62 -339 -265 -348 -275
-3 -3 -52 -47 -110 -96 -153 -131 -239 -210 -535 -490 -33 -32 -308 -303 -610
-604 -458 -454 -692 -682 -914 -891 -14 -14 -73 -68 -131 -120 -58 -52 -110
-99 -116 -105 -356 -325 -882 -722 -1224 -924 -58 -34 -112 -66 -120 -71 -109
-67 -377 -197 -562 -274 -255 -106 -680 -218 -905 -240 -272 -27 -689 -27
-793 -1 -8 2 -42 7 -75 10 -32 4 -62 8 -65 10 -3 1 -25 6 -51 9 -134 18 -397
87 -596 156 -277 97 -647 274 -871 416 -29 19 -54 34 -57 34 -6 0 -282 178
-385 248 -302 208 -643 474 -871 682 -304 277 -609 583 -909 910 -52 57 -104
113 -115 124 -11 12 -63 69 -115 126 -52 58 -97 107 -100 110 -3 3 -32 34 -65
70 -360 391 -569 607 -811 840 -168 161 -239 222 -394 339 -52 39 -99 74 -105
79 -29 22 -160 105 -190 120 -19 9 -35 19 -35 22 0 3 55 46 123 97 130 97 344
272 461 377 39 35 91 81 115 102 24 22 67 61 95 87 28 27 89 84 136 127 131
122 293 280 850 833 592 588 694 687 1009 973 325 296 715 604 1031 814 627
418 1223 662 1800 736 25 3 56 7 70 10 14 2 75 7 135 10 61 4 111 7 112 8 6 5
308 -2 374 -8z"/>
<path d="M16298 23835 c-1 -1 -66 -6 -143 -9 -77 -3 -156 -8 -175 -10 -19 -3
-55 -8 -80 -11 -25 -3 -90 -14 -145 -25 -55 -11 -109 -22 -120 -24 -169 -33
-459 -141 -658 -244 -279 -145 -485 -297 -707 -521 -128 -129 -162 -166 -236
-261 -207 -265 -369 -573 -470 -893 -20 -61 -37 -119 -39 -127 -24 -97 -55
-245 -60 -285 -3 -27 -8 -57 -10 -65 -19 -74 -27 -535 -12 -680 69 -653 344
-1240 801 -1708 492 -504 1136 -804 1841 -858 69 -5 373 -5 425 1 19 2 62 6
95 9 32 3 73 8 90 11 16 3 44 7 60 10 17 2 43 7 58 11 16 3 38 7 50 9 53 7
208 48 325 86 838 272 1521 945 1810 1784 27 79 77 253 87 303 1 9 10 51 19
92 8 41 18 101 21 133 4 32 8 67 10 77 22 114 22 541 1 657 -2 10 -7 45 -11
78 -3 32 -8 62 -10 65 -1 3 -6 25 -9 50 -3 25 -10 60 -15 78 -11 36 -11 37
-11 55 0 6 -25 -34 -54 -91 -108 -204 -237 -366 -411 -517 -60 -52 -232 -162
-325 -207 -83 -41 -246 -103 -297 -113 -10 -1 -52 -10 -93 -18 -189 -39 -370
-43 -580 -12 -112 16 -286 69 -405 123 -78 35 -233 124 -271 155 -11 9 -51 41
-90 71 -161 127 -315 323 -418 531 -118 239 -169 454 -169 710 0 96 7 202 18
255 2 13 7 42 10 63 9 54 51 199 82 277 99 249 264 478 473 655 80 68 202 147
308 200 52 26 92 48 90 50 -2 2 -15 6 -28 8 -138 26 -203 37 -245 42 -27 4
-61 8 -75 11 -14 2 -81 6 -150 10 -69 3 -130 7 -137 9 -6 2 -13 2 -15 0z"/>
<path d="M4747 11684 c-2 -2 -26 -4 -53 -5 -27 -1 -94 -10 -150 -20 -441 -83
-691 -340 -699 -719 -6 -344 187 -564 610 -695 28 -8 64 -19 80 -25 28 -8 342
-88 375 -95 101 -20 300 -89 382 -132 117 -61 200 -157 228 -262 25 -95 8
-230 -40 -312 -82 -141 -264 -239 -499 -266 -74 -9 -282 -9 -352 -1 -265 33
-559 158 -710 301 l-26 25 -59 -115 -59 -115 45 -39 c149 -131 405 -244 643
-284 17 -3 39 -8 47 -10 70 -19 390 -26 500 -11 78 10 113 16 130 21 8 2 29 7
47 10 49 8 198 63 251 92 153 84 265 197 327 332 31 68 56 193 57 280 1 323
-168 527 -547 661 -49 17 -187 56 -305 87 -118 30 -246 63 -285 73 -397 102
-562 255 -550 508 15 298 303 478 752 467 200 -5 366 -46 563 -138 47 -22 97
-48 112 -58 14 -11 32 -19 40 -19 8 0 33 45 61 112 53 128 59 113 -64 177
-214 113 -444 170 -711 176 -75 1 -139 1 -141 -1z"/>
<path d="M7938 11685 c-1 -1 -35 -5 -74 -9 -151 -12 -296 -51 -427 -117 -182
-90 -302 -225 -364 -408 -33 -96 -41 -265 -18 -374 38 -186 170 -344 370 -444
92 -47 398 -146 515 -167 57 -10 301 -76 375 -101 290 -97 418 -237 410 -450
-8 -251 -185 -404 -530 -460 -64 -11 -284 -13 -355 -4 -278 34 -521 132 -703
282 -26 22 -50 38 -52 36 -2 -3 -29 -53 -59 -111 l-55 -107 54 -48 c169 -151
475 -268 780 -300 202 -21 447 -4 625 44 60 15 63 17 163 62 187 84 330 234
388 408 29 89 34 120 33 243 -1 269 -133 458 -409 586 -61 28 -229 89 -275 99
-134 31 -544 140 -600 160 -190 68 -316 162 -368 272 -24 52 -27 69 -27 168 0
103 2 114 32 178 76 160 250 267 493 303 82 12 267 11 356 -1 186 -26 323 -71
489 -159 l103 -54 27 66 c15 37 36 85 46 108 11 22 19 45 19 51 0 14 -96 73
-183 112 -128 58 -266 95 -462 126 -43 7 -311 16 -317 10z"/>
<path d="M11508 11685 c-2 -2 -33 -6 -69 -9 -53 -6 -204 -37 -289 -60 -42 -12
-154 -58 -220 -91 -318 -160 -566 -451 -674 -790 -14 -44 -28 -96 -31 -115 -3
-19 -8 -42 -11 -51 -19 -64 -29 -394 -14 -470 5 -26 11 -67 14 -92 5 -42 45
-185 65 -232 146 -345 352 -570 669 -729 81 -41 250 -100 333 -117 163 -33
426 -45 564 -24 210 31 420 104 575 199 348 213 581 567 636 965 3 25 8 57 10
71 6 32 6 299 0 308 -2 4 -7 30 -10 57 -18 162 -97 382 -189 530 -42 68 -140
190 -200 248 -65 65 -207 177 -223 177 -4 0 -15 6 -23 14 -24 22 -167 90 -251
121 -87 31 -206 62 -276 70 -27 3 -60 8 -74 12 -25 6 -306 13 -312 8z m287
-270 c22 -3 52 -8 66 -10 203 -29 432 -148 589 -304 174 -173 277 -378 318
-636 9 -55 8 -289 -1 -350 -12 -78 -18 -108 -27 -135 -4 -14 -16 -50 -25 -80
-75 -242 -273 -475 -519 -610 -51 -28 -170 -77 -206 -85 -8 -2 -44 -10 -80
-19 -249 -59 -536 -33 -775 71 -210 91 -403 265 -513 463 -70 125 -122 288
-138 430 -8 76 -7 242 1 291 4 19 8 45 10 59 12 94 65 245 122 350 74 136 210
289 324 364 24 16 55 37 69 46 108 72 327 143 482 156 40 4 74 8 76 9 5 4 183
-4 227 -10z"/>
<path d="M15578 11685 c-2 -2 -34 -6 -73 -10 -38 -4 -72 -8 -75 -10 -3 -2 -25
-6 -49 -10 -227 -34 -536 -191 -702 -358 -134 -134 -245 -292 -299 -427 -12
-30 -26 -64 -31 -75 -46 -110 -81 -301 -84 -470 -2 -125 0 -169 20 -306 9 -57
50 -198 80 -273 117 -292 345 -542 625 -685 100 -52 268 -113 356 -131 27 -5
60 -12 73 -14 96 -21 334 -27 466 -13 209 22 434 99 600 206 80 51 214 167
215 186 0 6 -40 51 -90 100 l-90 89 -42 -40 c-149 -140 -317 -226 -532 -269
-141 -29 -436 -21 -529 14 -15 6 -27 8 -27 6 0 -9 -178 59 -245 93 -140 74
-278 192 -380 327 -79 104 -162 293 -189 430 -4 17 -9 41 -12 55 -13 56 -11
307 3 390 84 491 460 850 967 923 87 13 246 14 337 3 238 -29 445 -125 618
-286 l33 -31 89 89 c49 49 89 94 89 100 0 13 -9 22 -84 87 -172 148 -416 259
-643 290 -18 3 -50 8 -70 11 -37 6 -320 13 -325 9z"/>
<path d="M1272 11659 c-10 -4 -39 -54 -66 -114 -26 -59 -65 -144 -86 -189 -21
-44 -48 -103 -60 -131 -12 -27 -37 -81 -55 -120 -18 -38 -95 -205 -170 -370
-161 -352 -170 -372 -224 -488 -22 -49 -41 -91 -41 -93 0 -2 -17 -41 -39 -86
-21 -46 -49 -105 -61 -133 -12 -27 -38 -84 -57 -125 -19 -41 -69 -149 -110
-240 -41 -91 -99 -217 -128 -280 -29 -63 -64 -140 -78 -170 -13 -30 -39 -86
-56 -124 -18 -38 -29 -71 -27 -74 3 -3 71 -6 151 -6 l144 -1 72 160 c86 193
202 450 235 523 l24 52 763 0 764 0 36 -82 c76 -174 287 -642 292 -646 6 -6
305 -8 305 -1 0 4 -262 582 -365 804 -12 28 -60 131 -105 230 -45 99 -100 218
-121 263 -22 46 -39 85 -39 87 0 2 -17 41 -39 87 -21 45 -57 123 -80 171 -22
49 -41 91 -41 93 0 2 -18 40 -39 84 -22 44 -37 80 -34 80 3 0 1 6 -5 13 -5 6
-64 131 -130 277 -66 146 -138 303 -160 350 -21 47 -51 112 -66 145 l-26 60
-131 0 c-72 0 -138 -3 -147 -6z m194 -444 c13 -27 50 -111 82 -185 33 -74 72
-161 86 -192 63 -140 87 -193 238 -533 88 -198 166 -372 174 -387 l15 -28 -48
0 c-273 -3 -1256 -1 -1259 3 -2 2 10 35 27 73 39 86 35 78 219 489 83 187 179
401 212 475 33 74 70 155 80 180 11 25 32 70 45 100 14 30 34 75 45 100 l20
45 20 -45 c12 -25 31 -67 44 -95z"/>
<path d="M18127 11662 c-11 -2 -17 -13 -18 -30 -4 -182 0 -2705 5 -2709 3 -3
68 -6 143 -6 l138 -1 3 1372 c2 1215 0 1372 -13 1373 -51 3 -244 3 -258 1z"/>
<path d="M20890 11655 c-4 -5 -14 -26 -23 -45 -8 -19 -34 -75 -57 -125 -23
-49 -84 -182 -135 -295 -51 -113 -109 -241 -130 -285 -77 -166 -99 -214 -165
-360 -37 -82 -81 -179 -98 -215 -16 -36 -40 -87 -52 -115 -12 -27 -38 -84 -57
-125 -19 -41 -80 -174 -135 -295 -107 -233 -145 -316 -186 -405 -138 -298
-210 -465 -203 -470 7 -4 229 -5 287 -1 11 1 28 37 25 54 -1 4 3 7 9 7 5 0 10
5 10 11 0 9 64 154 191 434 10 22 36 81 58 130 l40 90 764 3 c606 2 766 0 770
-10 3 -7 31 -69 62 -138 31 -69 65 -145 76 -170 11 -25 57 -128 103 -229 l83
-184 151 -1 c84 -1 152 2 152 7 0 7 -190 426 -301 665 -22 46 -39 85 -39 87 0
2 -20 45 -44 97 -24 51 -56 120 -71 153 -105 231 -293 641 -317 695 -17 36
-75 164 -130 285 -55 121 -116 254 -136 295 -19 41 -46 100 -59 130 -33 73
-62 136 -112 245 l-42 90 -140 0 c-82 0 -144 -4 -149 -10z m240 -515 c51 -113
100 -223 110 -245 10 -22 39 -87 65 -145 67 -151 74 -168 105 -235 15 -33 34
-76 43 -95 18 -41 100 -225 129 -290 11 -25 32 -70 45 -100 14 -30 34 -74 44
-97 l18 -43 -22 0 c-133 -3 -1280 -1 -1283 3 -2 2 2 17 10 33 8 16 43 94 79
174 35 80 75 168 87 195 13 28 33 73 45 100 50 110 399 892 412 924 8 18 16
31 18 29 2 -2 45 -96 95 -208z"/>
<path d="M23139 11662 l-35 -3 -1 -124 -1 -125 483 0 483 0 0 -1239 c0 -682 2
-1243 5 -1248 3 -4 67 -8 144 -7 l138 1 3 1246 2 1247 483 0 482 0 1 125 0
125 -25 1 c-86 2 -2133 3 -2162 1z"/>
<path d="M26574 11661 c-2 -2 -4 -621 -4 -1375 l0 -1371 970 0 970 0 1 25 c0
14 1 70 1 125 l0 100 -824 3 -825 2 -1 509 0 509 709 -1 c467 -1 709 1 710 8
4 60 2 220 -3 228 -5 9 -190 12 -710 12 l-703 0 -1 488 -1 487 797 0 796 0 -1
127 -1 126 -938 1 c-516 1 -940 -1 -942 -3z"/>
<path d="M30003 11662 c-13 -2 -23 -11 -24 -20 -4 -100 0 -2714 4 -2719 9 -9
1193 -8 1287 1 133 13 242 34 362 72 91 28 318 132 318 146 0 4 5 8 12 8 20 0
160 111 232 184 201 204 322 460 363 767 9 70 9 307 -1 384 -55 438 -309 806
-693 1003 -89 46 -269 114 -333 126 -14 2 -60 11 -103 20 -43 8 -117 18 -165
22 -85 7 -1216 12 -1259 6z m1325 -272 c601 -103 959 -530 947 -1130 -6 -315
-124 -595 -329 -780 -22 -19 -44 -40 -50 -46 -61 -59 -258 -164 -379 -200
-191 -57 -251 -62 -769 -64 l-478 -1 0 1121 0 1121 478 -2 c404 -2 493 -4 580
-19z"/>
<path d="M31740 7068 c-372 -30 -624 -188 -711 -446 -39 -115 -35 -294 8 -397
83 -196 276 -310 675 -399 246 -55 354 -94 417 -151 36 -33 43 -47 55 -110 6
-31 -19 -94 -51 -127 -107 -115 -447 -126 -733 -26 -97 34 -191 80 -236 114
-17 13 -35 24 -40 24 -5 0 -44 -80 -88 -177 l-79 -176 24 -18 c68 -53 308
-154 409 -172 14 -3 36 -8 50 -11 97 -23 198 -31 370 -30 229 0 383 35 538
120 202 112 314 307 306 536 -4 103 -40 217 -87 275 -122 148 -257 212 -637
303 -96 23 -179 43 -185 44 -5 2 -23 6 -40 11 -69 18 -175 77 -201 111 -35 45
-43 117 -19 167 53 112 175 159 395 153 128 -4 141 -6 245 -32 69 -18 215 -77
262 -105 38 -23 34 -28 83 97 17 43 37 93 44 109 20 46 44 108 49 125 6 24
-215 126 -316 146 -10 2 -26 5 -35 8 -9 3 -33 7 -52 10 -19 3 -46 8 -60 11
-25 5 -146 15 -230 18 -25 1 -83 -1 -130 -5z"/>
<path d="M17635 7054 c-200 -35 -342 -101 -451 -209 -115 -114 -163 -225 -169
-386 -4 -117 7 -173 52 -266 43 -89 127 -172 229 -225 66 -35 245 -101 304
-112 14 -2 93 -21 175 -41 332 -81 420 -138 419 -267 -1 -83 -59 -142 -176
-180 -51 -17 -90 -21 -208 -21 -229 0 -424 52 -608 164 -35 21 -66 39 -68 39
-5 0 -27 -47 -113 -238 l-51 -114 22 -19 c38 -31 197 -106 293 -138 87 -29
108 -34 185 -47 19 -3 37 -7 41 -9 28 -18 384 -27 489 -13 355 48 589 226 656
499 11 41 11 201 1 248 -31 152 -147 282 -322 362 -64 29 -269 94 -328 104
-17 3 -57 12 -87 20 -30 8 -69 16 -86 19 -17 3 -62 15 -100 27 -187 58 -255
118 -249 222 9 135 149 215 376 215 169 1 333 -38 492 -116 52 -26 80 -35 86
-28 11 15 143 347 139 351 -17 17 -181 88 -248 108 -114 34 -132 38 -245 56
-88 14 -358 11 -450 -5z"/>
<path d="M21835 7045 c-342 -71 -600 -262 -745 -553 -30 -60 -67 -159 -75
-202 -4 -20 -16 -79 -21 -100 -10 -46 -12 -244 -2 -315 15 -116 47 -225 94
-324 59 -122 100 -179 193 -272 131 -132 283 -220 471 -272 132 -37 212 -46
380 -42 314 7 555 104 744 299 l58 60 -69 66 c-38 36 -106 99 -152 141 l-82
76 -61 -59 c-162 -156 -393 -217 -620 -163 -221 52 -384 203 -454 420 -33 102
-38 282 -11 385 52 192 155 322 322 404 115 57 175 70 310 70 188 0 323 -54
461 -186 l50 -49 25 22 c13 11 69 62 124 113 55 51 113 105 129 120 l29 26
-34 37 c-153 163 -350 266 -584 307 -131 23 -347 19 -480 -9z"/>
<path d="M6 7031 c-2 -6 0 -2020 3 -2031 0 -3 355 -5 789 -5 l787 0 1 191 2
191 -549 0 c-302 0 -552 3 -556 6 -3 4 -6 109 -6 234 l-1 228 474 0 473 0 1
183 c1 114 -3 182 -9 183 -5 1 -215 2 -467 3 -251 0 -460 4 -464 8 -5 6 -10
372 -5 423 1 7 186 10 534 10 l532 0 0 190 0 190 -768 1 c-422 0 -769 -2 -771
-5z"/>
<path d="M2252 7017 c6 -12 81 -138 168 -282 86 -143 259 -429 383 -636 l227
-377 0 -364 0 -363 229 0 c126 0 233 3 237 7 3 4 7 166 6 360 l0 353 163 270
c89 149 171 284 181 301 76 128 132 220 146 243 10 14 21 32 24 39 4 8 60 102
125 209 66 108 119 199 119 203 0 4 7 13 15 20 40 33 19 36 -215 37 l-230 0
-243 -403 c-133 -222 -254 -422 -268 -446 -14 -24 -29 -42 -33 -41 -5 1 -128
201 -275 445 l-266 443 -252 1 -253 2 12 -21z"/>
<path d="M5057 7031 c-2 -3 -3 -463 -3 -1021 l1 -1015 790 0 790 0 0 190 0
190 -525 2 c-289 1 -538 2 -555 2 l-30 1 0 233 0 232 472 0 473 0 1 32 c0 18
1 96 1 173 0 77 -1 146 -1 153 -1 10 -101 12 -473 12 l-473 0 0 218 c0 119 2
218 5 218 3 1 241 3 530 4 289 1 528 3 531 4 4 0 6 85 5 189 l-1 187 -768 1
c-422 1 -769 -2 -770 -5z"/>
<path d="M9000 6016 l0 -1021 235 0 c204 0 235 2 236 15 0 8 1 135 1 281 l1
266 241 1 c260 1 317 4 414 22 312 57 525 227 609 485 21 65 26 103 28 205 5
185 -25 298 -112 432 -88 135 -260 250 -438 295 -135 34 -174 36 -692 38
l-523 3 0 -1022z m1001 620 c75 -16 156 -54 192 -90 89 -89 119 -232 77 -370
-34 -108 -107 -171 -245 -212 -49 -14 -104 -17 -305 -18 l-245 -1 -2 340 c-1
187 0 346 2 353 6 18 437 17 526 -2z"/>
<path d="M11686 7031 c-1 -3 -2 -463 -2 -1021 l1 -1015 238 0 237 0 0 417 0
418 23 1 c28 1 843 1 877 0 l25 -1 -1 -407 c0 -225 1 -413 3 -418 2 -7 88 -10
236 -10 l232 0 0 1020 0 1020 -235 0 -235 0 -1 -390 c-1 -214 -2 -395 -3 -402
-1 -8 -120 -11 -461 -11 l-460 1 -2 401 -3 401 -233 1 c-128 1 -234 -2 -236
-5z"/>
<path d="M14361 7001 c138 -233 90 -153 458 -762 l311 -517 0 -363 0 -364 228
1 c125 1 232 2 237 3 6 1 10 127 9 358 l-1 358 310 515 c170 283 317 529 327
545 9 17 47 80 84 140 36 61 66 113 66 116 0 3 -104 6 -230 6 l-231 0 -261
-436 c-143 -240 -266 -442 -273 -449 -9 -10 -67 79 -281 436 l-269 448 -253 1
-252 0 21 -36z"/>
<path d="M19575 7026 c-2 -6 -3 -465 -2 -1021 l2 -1010 236 0 237 -1 0 1018 0
1018 -22 4 c-11 3 -117 4 -234 4 -150 0 -215 -4 -217 -12z"/>
<path d="M23830 6016 l0 -1021 235 0 c152 0 235 3 236 10 1 11 1 1977 0 2011
-1 20 -5 21 -236 21 l-235 0 0 -1021z"/>
<path d="M26006 7031 c-7 -10 -177 -393 -206 -461 -15 -36 -41 -94 -58 -130
-31 -67 -151 -335 -252 -565 -32 -71 -69 -155 -83 -185 -49 -109 -307 -690
-307 -692 0 -2 109 -3 243 -3 l242 0 58 140 c32 77 64 154 71 170 7 17 21 51
31 78 11 29 24 47 34 48 132 5 925 -1 931 -8 7 -7 48 -105 156 -368 l24 -60
245 0 c135 0 245 4 246 8 1 7 -90 217 -152 352 -15 33 -102 228 -194 433 -91
205 -180 403 -196 440 -17 37 -67 148 -111 247 -44 99 -92 207 -107 240 -15
33 -53 119 -85 191 l-58 131 -234 0 c-129 0 -236 -2 -238 -6z m301 -624 c34
-83 103 -251 153 -372 51 -121 94 -225 97 -231 3 -9 -81 -12 -317 -12 -176 0
-320 4 -318 9 19 55 314 759 318 759 3 0 33 -69 67 -153z"/>
<path d="M28186 7031 c-5 -9 -5 -2003 0 -2021 3 -13 37 -15 234 -15 l230 0 0
612 c0 337 3 613 8 613 4 0 16 -13 27 -29 11 -15 37 -48 57 -72 20 -24 94
-114 163 -199 146 -179 173 -212 245 -299 29 -35 118 -143 197 -240 80 -97
152 -185 161 -196 9 -11 37 -45 62 -75 25 -30 57 -68 72 -85 l28 -30 190 0
c120 0 191 3 193 10 2 5 3 465 3 1020 l-1 1010 -235 0 -235 0 0 -612 c0 -337
-2 -613 -5 -612 -3 0 -102 120 -221 267 -119 147 -305 375 -414 507 -108 132
-231 282 -273 334 -42 52 -82 99 -89 106 -12 12 -390 18 -397 6z"/>
</g>
</svg>
